<svg width="25" height="20" viewBox="0 0 25 20" fill="none" xmlns="http://www.w3.org/2000/svg">
<rect width="25" height="20" fill="black" fill-opacity="0"/>
<path d="M19.9294 16.7139L19.2997 16.0787L19.4951 15.8707C21.4694 13.7696 22.2901 10.8577 21.7176 7.98434C21.3987 6.38341 20.6563 4.9307 19.5091 3.66222L19.2996 3.43057L19.9369 2.78957L20.5742 2.14857L20.7376 2.32546C20.8275 2.42275 21.0091 2.62971 21.1412 2.78537C23.573 5.65118 24.3339 9.59474 23.1457 13.1736C22.6703 14.6055 21.906 15.9042 20.8653 17.0483C20.7149 17.2137 20.5845 17.349 20.5755 17.349C20.5665 17.349 20.2757 17.0632 19.9294 16.7139Z" fill="black"/>
<rect width="2.6391" height="8.19953" fill="black" fill-opacity="0" transform="translate(1.79956 5.6672)"/>
<path d="M1.86893 5.70604C1.7404 5.89004 1.83564 6.13965 1.80639 6.352C1.81285 8.80528 1.79077 11.2591 1.82682 13.712C1.89833 13.9444 2.1828 13.8354 2.35937 13.866C3.00273 13.8651 3.65021 13.8737 4.29089 13.8493C4.51082 13.781 4.39592 13.4953 4.42487 13.3227C4.42946 10.8268 4.43406 8.33084 4.43866 5.83489C4.39143 5.58242 4.08566 5.69726 3.90672 5.67202C3.2519 5.67828 2.59295 5.65956 1.94068 5.68132C1.91676 5.68956 1.89284 5.6978 1.86893 5.70604L1.86893 5.70604Z" fill="#FFF6E1"/>
<path d="M15.8899 6.63041C15.4305 7.06265 14.9969 7.52569 14.5474 7.96977C14.4105 8.18583 14.7028 8.33954 14.7897 8.51641C15.0401 8.87586 15.1904 9.31589 15.1655 9.74309C15.1825 10.1054 15.1158 10.4783 14.9258 10.7965C14.8277 11.0358 14.6194 11.2062 14.5059 11.4301C14.5223 11.6431 14.7685 11.7516 14.8881 11.9151C15.2179 12.2379 15.5296 12.5863 15.8719 12.8921C16.0759 12.9966 16.1778 12.7198 16.302 12.6073C17.0358 11.751 17.4104 10.6023 17.326 9.47412C17.2774 8.46219 16.8256 7.50245 16.1545 6.75869C16.0916 6.67034 16.0052 6.58836 15.8899 6.63041Z" fill="#FFF6E1"/>
<path d="M18.1934 4.31229C17.7169 4.7138 17.2994 5.18258 16.8499 5.61431C16.7047 5.82913 17.0088 5.96519 17.1058 6.12419C18.0357 7.21708 18.5331 8.67827 18.423 10.1181C18.3527 11.4381 17.7571 12.7002 16.8503 13.6458C16.7235 13.8693 17.0287 13.9993 17.1383 14.1536C17.4803 14.498 17.8181 14.847 18.165 15.1864C18.3719 15.3112 18.4887 15.0394 18.6133 14.9228C20.1972 13.1831 20.925 10.678 20.4707 8.35589C20.1919 6.84221 19.4564 5.40617 18.3632 4.33055C18.3101 4.28312 18.2564 4.29901 18.1934 4.31229Z" fill="#FFF6E1"/>
<path d="M20.503 1.977C20.0461 2.42214 19.5892 2.87655 19.1528 3.34002C19.0466 3.54502 19.3238 3.67582 19.418 3.82802C20.5968 5.13963 21.3981 6.80681 21.6364 8.56458C21.7236 9.24369 21.6928 9.95864 21.6768 10.6209C21.5128 12.2975 20.8775 13.9144 19.8154 15.2239C19.6091 15.5025 19.3421 15.7436 19.1374 16.0238C19.08 16.2288 19.3453 16.3345 19.4463 16.4817C19.7997 16.8184 20.1142 17.2035 20.5045 17.4975C20.7147 17.5955 20.8327 17.3242 20.9634 17.2099C22.3821 15.6776 23.356 13.7304 23.7081 11.663C24.1422 9.20941 23.7219 6.60796 22.4991 4.4381C22.0031 3.54696 21.3818 2.724 20.6725 1.99776C20.6202 1.94954 20.5662 1.96466 20.503 1.977Z" fill="#FFF6E1"/>
<path d="M13.1093 0.913131C10.4502 2.50152 7.79384 4.09501 5.1358 5.68539C4.97985 5.84943 5.0892 6.10787 5.05603 6.31355C5.05167 8.77433 5.04732 11.2351 5.04297 13.6959C5.10286 13.9151 5.37959 13.9521 5.53813 14.0859C8.05561 15.5979 10.5731 17.1099 13.0906 18.6218C13.2895 18.7119 13.3731 18.4681 13.3347 18.31C13.3476 12.5607 13.3472 6.81144 13.3344 1.06219C13.3195 0.945585 13.2218 0.880678 13.1093 0.913131Z" fill="#FFF6E1"/>
</svg>
